<svg xmlns="http://www.w3.org/2000/svg" xmlns:svg="http://www.w3.org/2000/svg" viewBox="0 0 25.399993 31.749992499999998" version="1.1" x="0px" y="0px"><g transform="translate(-1.9073487e-6,-297.49102)"><path style="color:#E71B63;" d="m 12.69896,299.60768 c -2.9209398,0 -5.5673199,1.18463 -7.4822299,3.09949 -0.95744,0.95743 -1.73193,2.09669 -2.26756,3.36303 -0.0576,0.13485 0.005,0.29085 0.14056,0.34779 0.13428,0.0562 0.28878,-0.007 0.34572,-0.14056 0.50869,-1.20264 1.24452,-2.28525 2.15439,-3.1951 1.81975,-1.8197 4.3311701,-2.94549 7.1091199,-2.94549 2.777938,0 5.289908,1.1258 7.109648,2.94549 0.90988,0.90986 1.64777,1.99246 2.15646,3.1951 0.0569,0.1337 0.21105,0.19645 0.34519,0.14056 0.13534,-0.0567 0.19864,-0.2128 0.14108,-0.34779 -0.53563,-1.26634 -1.3101,-2.40559 -2.26756,-3.36303 -1.9149,-1.91486 -4.56389,-3.09949 -7.484818,-3.09949 z m 0,1.85153 c -3.9796998,0 -7.3394699,2.66682 -8.3891499,6.31215 -0.35944,-0.13993 -0.73371,-0.22634 -1.13016,-0.22634 H 0.79271007 c -0.14612,5.9e-4 -0.2641,0.1195 -0.26354,0.26562 v 1.05831 c 3e-4,0.14551 0.11803,0.26346 0.26354,0.26405 H 1.3224001 v 2.11715 H 0.79271007 c -0.14612,5.9e-4 -0.2641,0.1195 -0.26354,0.26562 v 1.05831 c 5.8e-4,0.1453 0.11823,0.26295 0.26354,0.26354 H 3.1796501 c 0.39622,0 0.77039,-0.086 1.12965,-0.22582 1.05014,3.64458 4.4104501,6.31008 8.3896599,6.31008 3.980528,0 7.342738,-2.66722 8.391738,-6.3137 0.36325,0.1417 0.7414,0.22944 1.14153,0.22944 h 2.37298 c 0.14612,5.6e-4 0.26504,-0.11743 0.26562,-0.26354 v -1.05831 c 5.6e-4,-0.14693 -0.11869,-0.26618 -0.26562,-0.26562 h -0.52916 V 309.133 h 0.52916 c 0.14632,5.6e-4 0.26532,-0.11773 0.26562,-0.26405 v -1.05831 c 5.6e-4,-0.14693 -0.11869,-0.26618 -0.26562,-0.26562 h -2.37298 c -0.3995,0 -0.77724,0.0871 -1.13998,0.22841 -1.049,-3.64661 -4.41267,-6.31422 -8.393288,-6.31422 z m 0,0.52915 c 3.772688,0 6.947398,2.54439 7.906498,6.00831 -0.24076,0.12679 -0.47555,0.273 -0.70694,0.42735 -0.34562,0.23055 -0.69003,0.48854 -1.03817,0.75859 -0.0642,-0.0498 -0.12721,-0.0993 -0.19224,-0.14933 -1.5774,-1.21452 -3.52418,-2.54557 -5.967078,-2.54502 -2.44264,5.5e-4 -4.3923198,1.33052 -5.9686299,2.54502 -0.0652,0.0503 -0.12655,0.0989 -0.19068,0.14882 -0.34762,-0.26978 -0.69125,-0.52759 -1.03611,-0.75808 -0.23218,-0.15517 -0.46771,-0.3016 -0.70901,-0.4289 0.95971,-3.46284 4.1304401,-6.00676 7.9023599,-6.00676 z m 5.646618,7.46452 c 0.0288,0.0222 0.0566,0.0441 0.0853,0.0661 -0.14191,0.11189 -0.28537,0.22354 -0.42943,0.3364 -1.53218,-1.17804 -3.25489,-2.30881 -5.300448,-2.30834 -2.0547,4.6e-4 -3.7863598,1.14262 -5.3221499,2.32591 -0.76769,0.59149 -1.481,1.18734 -2.16783,1.64638 -0.68877,0.46031 -1.34343,0.78908 -2.0314,0.78908 h -2.12132 v -0.52916 h 2.12132 c 0.5159,0 1.08559,-0.26287 1.73839,-0.69916 0.65095,-0.43506 1.35877,-1.0278 2.13682,-1.62726 1.5566001,-1.19933 3.3964199,-2.43652 5.6461499,-2.437 2.249728,-4.8e-4 4.086578,1.23744 5.644598,2.43705 z M 1.0582601,308.07417 h 2.12132 c 0.68798,0 1.34264,0.32877 2.0314,0.78909 0.29424,0.19666 0.59353,0.41928 0.89969,0.65525 -0.14673,0.11563 -0.28939,0.22836 -0.42943,0.33796 -0.26293,-0.20139 -0.51735,-0.38962 -0.76327,-0.55397 -0.6528,-0.43628 -1.22249,-0.69917 -1.73839,-0.69917 h -2.12132 z m 21.1738979,0 h 2.10943 v 0.52916 h -2.10943 c -0.51847,0 -1.09193,0.26278 -1.74614,0.69917 -0.65226,0.43508 -1.36163,1.02968 -2.14044,1.62933 -1.55802,1.19959 -3.39487,2.43597 -5.644618,2.43546 -2.24975,-5.1e-4 -4.0895698,-1.23615 -5.6461699,-2.43546 -0.0288,-0.0222 -0.0567,-0.0444 -0.0853,-0.0667 0.14264,-0.11249 0.28716,-0.22444 0.43201,-0.33795 1.5301701,1.17702 3.2548299,2.30839 5.2994199,2.30885 2.054498,4.6e-4 3.783398,-1.14078 5.320608,-2.32436 0.76851,-0.59173 1.48371,-1.18935 2.17196,-1.64845 0.67737,-0.36751 1.25187,-0.78905 2.03867,-0.78905 z m -9.796818,0.01 v 4.2162 c -0.2688,-0.0145 -0.53307,-0.0501 -0.79271,-0.1049 v -4.00588 c 0.25966,-0.0547 0.52389,-0.0909 0.79271,-0.10542 z m 0.529168,0 c 0.26911,0.0143 0.53341,0.0498 0.79323,0.10439 v 4.00794 c -0.25981,0.0547 -0.52413,0.0901 -0.79323,0.10439 z m 1.3224,0.24237 c 0.26943,0.0837 0.53437,0.18619 0.79478,0.30384 v 3.12378 c -0.26037,0.1178 -0.52539,0.22008 -0.79478,0.30386 z m -3.173968,0.002 v 3.7289 c -0.26948,-0.084 -0.53429,-0.18696 -0.79478,-0.30489 v -3.12017 c 0.26047,-0.11776 0.52533,-0.22 0.79478,-0.30384 z m 4.498438,0.56429 c 0.26864,0.14437 0.53241,0.30404 0.79271,0.47283 v 1.65362 c -0.26023,0.16885 -0.52415,0.32834 -0.79271,0.47283 z m -5.8223878,10e-4 v 2.59669 c -0.26885,-0.14466 -0.53281,-0.30435 -0.79323,-0.47335 v -1.65 c 0.26042,-0.16887 0.52438,-0.32885 0.79323,-0.47334 z m -7.9375001,0.23976 h 0.79479 v 2.11715 h -0.79479 z m 1.32396,0 c 0.29995,0 0.57182,0.12569 0.79323,0.23048 v 1.65568 c -0.32128,0.15409 -0.565,0.23099 -0.7891,0.23099 -0.007,-0.73651 -0.004,-1.4843 -0.004,-2.11715 z m 19.0489579,0 v 2.11663 c -0.2003,-0.002 -0.47154,-0.079 -0.79272,-0.23305 v -1.65051 c 0.32118,-0.15405 0.59242,-0.23118 0.79272,-0.23307 z m 0.52917,0 h 0.7953 v 2.11715 h -0.7953 z m -18.2557379,0.52916 c 0.26083,0.16533 0.53421,0.36585 0.74983,0.52864 -0.25923,0.1984 -0.50387,0.36802 -0.74983,0.52968 z m 16.4041679,0.003 v 1.05314 c -0.25976,-0.165 -0.53243,-0.36428 -0.74724,-0.52604 0.26025,-0.19806 0.49789,-0.36326 0.74724,-0.5271 z m -3.96875,0.0589 c 0.21394,0.15152 0.42533,0.30827 0.63459,0.46766 -0.20924,0.15939 -0.42068,0.31609 -0.63459,0.46766 z m -8.4666678,0.002 v 0.93119 c -0.2131,-0.15103 -0.42369,-0.30684 -0.632,-0.46559 0.2083,-0.15871 0.41891,-0.31464 0.632,-0.4656 z m 11.2551278,0.79994 c 0.26346,0.20163 0.51755,0.38989 0.7643,0.55448 0.65421,0.4364 1.22767,0.69916 1.74614,0.69916 h 2.10943 v 0.52916 h -2.10943 c -0.69019,0 -1.34836,-0.32864 -2.03863,-0.78908 -0.29515,-0.19688 -0.59585,-0.41939 -0.90279,-0.65576 0.14707,-0.11572 0.29054,-0.2283 0.43098,-0.33796 z m -0.86093,0.67333 c 0.34813,0.27041 0.69195,0.52953 1.03766,0.76015 0.23087,0.15399 0.4652,0.2992 0.70539,0.4258 -0.95941,3.46335 -4.13261,6.00727 -7.904948,6.00727 -3.7713198,0 -6.9420699,-2.54274 -7.9023599,-6.00468 0.2413,-0.12732 0.47683,-0.27323 0.70901,-0.42839 0.34472,-0.23041 0.68863,-0.48846 1.03611,-0.75808 0.0634,0.0495 0.12597,0.0985 0.19068,0.14831 1.5763101,1.2145 3.5259899,2.54652 5.9686299,2.54708 2.442898,5.5e-4 4.389678,-1.33256 5.967078,-2.54708 0.066,-0.0508 0.12789,-0.0999 0.19275,-0.15038 z m -15.7711279,2.7636 c -0.13514,0.0569 -0.19819,0.21293 -0.14056,0.34778 0.53563,1.26635 1.31012,2.4056 2.26756,3.36304 1.91491,1.91486 4.5612901,3.10001 7.4822299,3.10001 2.920928,0 5.569918,-1.18515 7.484818,-3.10001 0.95746,-0.95745 1.73193,-2.09669 2.26756,-3.36304 0.0576,-0.13499 -0.006,-0.29104 -0.14108,-0.34778 -0.13414,-0.0559 -0.28825,0.007 -0.34519,0.14056 -0.50869,1.20264 -1.24658,2.28781 -2.15646,3.19767 -1.81974,1.81971 -4.33171,2.94292 -7.109648,2.94292 -2.7779498,0 -5.2893699,-1.12321 -7.1091199,-2.94292 -0.90987,-0.90985 -1.6457,-1.99504 -2.15439,-3.19767 -0.072,-0.16095 -0.23534,-0.18156 -0.34572,-0.14056 z" fill="#1885ed" stroke-width="1" stroke-linecap="round" stroke-linejoin="round" stroke-miterlimit="2"/></g><text x="0" y="40.399994" fill="#000000" font-size="5px" font-weight="bold" font-family="'Helvetica Neue', Helvetica, Arial-Unicode, Arial, Sans-serif">Created by Lihum Studio</text><text x="0" y="45.399994" fill="#000000" font-size="5px" font-weight="bold" font-family="'Helvetica Neue', Helvetica, Arial-Unicode, Arial, Sans-serif">from the Noun Project</text></svg>